<?xml version="1.0" encoding="utf-8"?>
<!-- Generator: Adobe Illustrator 21.1.0, SVG Export Plug-In . SVG Version: 6.00 Build 0)  -->
<svg version="1.1" id="Layer_1" xmlns="http://www.w3.org/2000/svg" xmlns:xlink="http://www.w3.org/1999/xlink" x="0px" y="0px"
	 viewBox="0 0 638.8 646.9" style="enable-background:new 0 0 638.8 646.9;" xml:space="preserve">
<style type="text/css">
	.st0{fill:#FFFFFF;}
</style>
<path class="st0" d="M250.9,163.7c11.2-11.2,29.5-11.2,40.7,0l142.1,142.6c10.9,10.9,11.2,28.5,0.9,39.6l-140,140.5
	c-5.7,5.7-13,8.5-20.4,8.5c-7.3,0-14.7-2.8-20.3-8.3c-11.2-11.2-11.3-29.3,0-40.7l119-120.8l-122-120.8
	C239.6,193.2,239.6,175.1,250.9,163.7L250.9,163.7z"/>
<path class="st0" d="M8.5,325.2c0,171.2,138.7,309.9,309.9,309.9s309.9-138.7,309.9-309.9S489.6,15.4,318.4,15.4
	S8.5,154.1,8.5,325.2z M56.2,325.2c0-70,27.3-135.9,76.9-185.3C182.5,90.3,248.4,63,318.4,63s135.9,27.3,185.3,76.9
	c49.6,49.5,76.9,115.3,76.9,185.3s-27.3,135.9-76.9,185.3c-49.5,49.6-115.3,76.9-185.3,76.9s-135.9-27.3-185.3-76.9
	C83.4,461.1,56.2,395.3,56.2,325.2z"/>
</svg>
